<svg width="32" height="32" viewBox="0 0 32 32" fill="none" xmlns="http://www.w3.org/2000/svg">
<path d="M16.0001 2.66666C8.63608 2.66666 2.66675 8.63599 2.66675 16C2.66675 21.9247 6.53408 26.9407 11.8801 28.6773H20.1201C25.4661 26.9407 29.3334 21.9247 29.3334 16C29.3334 8.63599 23.3641 2.66666 16.0001 2.66666Z" fill="url(#paint0_linear_3_4)"/>
<path opacity="0.05" d="M20.0067 27.9973L20 24.132C20 23.506 19.8533 22.8947 19.572 22.3407C23.3327 21.5853 25.1627 19.362 25.1627 15.556C25.1627 14.0527 24.7194 12.7253 23.8454 11.6093C23.912 11.398 23.9613 11.1793 23.992 10.9553C24.1173 10.0427 23.9767 9.446 23.8633 8.966L23.8454 8.88867C23.7213 8.358 23.5727 7.97934 23.5667 7.96334L23.4927 7.77534L23.4187 7.58734L23.2174 7.566L23.0153 7.54467C23.0153 7.54467 22.8827 7.53067 22.6813 7.53067C22.402 7.53067 21.988 7.55867 21.5967 7.69134L21.466 7.73534C20.9727 7.90134 20.5067 8.05867 19.8547 8.448C19.664 8.562 19.4553 8.692 19.232 8.83734C18.2227 8.58734 17.1367 8.46 16 8.46C14.852 8.46 13.7567 8.588 12.7407 8.84067C12.5147 8.694 12.3047 8.56267 12.1127 8.448C11.4607 8.05867 10.9947 7.902 10.5013 7.73534L10.3707 7.69134C9.98068 7.55867 9.56601 7.53067 9.28668 7.53067C9.08535 7.53067 8.95268 7.54467 8.95268 7.54467L8.75135 7.566L8.55135 7.58667L8.47668 7.774L8.40135 7.96267C8.39468 7.98 8.24601 8.35867 8.12201 8.89L8.10401 8.96667C7.99068 9.446 7.85001 10.0433 7.97535 10.9553C8.00735 11.186 8.05868 11.412 8.12868 11.6293C7.27201 12.74 6.83801 14.06 6.83801 15.556C6.83801 19.3527 8.67001 21.5747 12.436 22.336C12.3067 22.5947 12.206 22.868 12.1347 23.152C12.0033 23.1967 11.8827 23.2267 11.776 23.2433C11.6173 23.2673 11.4513 23.2793 11.2833 23.2793C10.826 23.2793 10.4667 23.19 10.3267 23.1067C10.118 22.9827 9.74535 22.622 9.38401 22.0947C9.07535 21.6447 8.59401 21.056 8.05601 20.81C7.59068 20.5973 7.09801 20.4753 6.70335 20.4753C6.61135 20.4753 6.52668 20.482 6.45268 20.494C6.10801 20.5487 5.82001 20.738 5.66335 21.014C5.52801 21.252 5.50668 21.5293 5.60468 21.7747C5.75068 22.14 6.17201 22.4313 6.50001 22.6113C6.66135 22.7 7.01001 23.024 7.21335 23.3507C7.36601 23.596 7.43668 23.7707 7.53468 24.012C7.59268 24.1553 7.65668 24.3113 7.74335 24.5C8.05668 25.1813 9.03468 25.7827 9.14535 25.8487C9.68268 26.1707 10.586 26.274 11.25 26.304L11.332 26.306H11.3327C11.4927 26.306 11.7127 26.2907 12.002 26.2587V28.0007C12.0033 28.3533 11.644 28.4333 11.1687 28.426L11.5333 28.5487C12.93 29.048 14.43 29.3333 16 29.3333C17.57 29.3333 19.07 29.048 20.4687 28.5493L20.9373 28.3747C20.4633 28.3587 20.0107 28.2813 20.0067 27.9973Z" fill="black"/>
<path opacity="0.07" d="M20.5206 28.5313C20.2499 28.5626 19.6666 28.4586 19.6666 28.0013V24.132C19.6666 23.4027 19.4479 22.698 19.0426 22.0973C22.9859 21.4593 24.8286 19.3686 24.8286 15.556C24.8286 14.0646 24.3712 12.76 23.4692 11.6746C23.5606 11.4313 23.6246 11.1746 23.6612 10.91C23.7779 10.0593 23.6506 9.51932 23.5386 9.04265L23.5206 8.96532C23.4019 8.45798 23.2619 8.10065 23.2559 8.08598L23.1819 7.89798L22.9799 7.87665C22.9799 7.87665 22.8612 7.86398 22.6806 7.86398C22.4266 7.86398 22.0512 7.88865 21.7032 8.00732L21.5726 8.05132C21.0966 8.21198 20.6466 8.36332 20.0252 8.73398C19.8039 8.86598 19.5572 9.02132 19.2912 9.19665C18.2692 8.92932 17.1632 8.79332 15.9999 8.79332C14.8252 8.79332 13.7099 8.92998 12.6806 9.19998C12.4119 9.02332 12.1639 8.86732 11.9412 8.73398C11.3199 8.36332 10.8699 8.21132 10.3939 8.05132L10.2632 8.00732C9.91591 7.88932 9.53991 7.86398 9.28591 7.86398C9.10524 7.86398 8.98658 7.87665 8.98658 7.87665L8.78524 7.89798L8.70991 8.08665C8.70391 8.10132 8.56391 8.45865 8.44524 8.96598L8.42724 9.04332C8.31458 9.51998 8.18724 10.0593 8.30458 10.91C8.34191 11.1813 8.40858 11.444 8.50324 11.6926C7.61858 12.7726 7.17058 14.0706 7.17058 15.556C7.17058 19.358 9.01458 21.448 12.9612 22.0933C12.6979 22.4866 12.5139 22.93 12.4192 23.4026C12.1992 23.4893 11.9999 23.5466 11.8252 23.5733C11.6499 23.6 11.4672 23.6133 11.2826 23.6133C10.8226 23.6133 10.3806 23.5273 10.1559 23.394C9.86258 23.22 9.45124 22.7846 9.10791 22.284C8.87458 21.944 8.40991 21.3393 7.91591 21.114C7.49258 20.9206 7.05058 20.8093 6.70191 20.8093C6.62858 20.8093 6.56191 20.8146 6.50324 20.824C6.25924 20.8626 6.05791 20.992 5.95124 21.18C5.86591 21.3293 5.85191 21.502 5.91191 21.652C6.03124 21.9506 6.47324 22.2186 6.65791 22.32C6.88124 22.4426 7.27058 22.816 7.49391 23.176C7.66124 23.4453 7.74058 23.6406 7.84124 23.8873C7.89791 24.0266 7.95991 24.1786 8.04391 24.362C8.26458 24.8413 8.94591 25.3433 9.31391 25.564C9.81658 25.8653 10.7499 25.9493 11.2619 25.972L11.3359 25.9733C11.5352 25.9733 11.8692 25.9433 12.3326 25.8833V28.0013C12.3326 28.5206 11.6719 28.5413 11.5099 28.5413C11.4892 28.5413 11.8452 28.664 11.8452 28.664C13.1539 29.0933 14.5479 29.3333 15.9999 29.3333C17.4519 29.3333 18.8459 29.0933 20.1539 28.6646C20.1539 28.6646 20.5412 28.5287 20.5206 28.5313Z" fill="black"/>
<path d="M24.496 15.556C24.496 14.016 23.9747 12.7387 23.0847 11.7373C23.1814 11.5207 23.282 11.23 23.332 10.8647C23.4467 10.0313 23.3114 9.53134 23.1967 9.04201C23.082 8.55268 22.9467 8.20868 22.9467 8.20868C22.9467 8.20868 22.332 8.14601 21.8114 8.32334C21.2907 8.50068 20.8427 8.63601 20.1967 9.02134C19.8947 9.20134 19.5907 9.39868 19.35 9.55868C18.3214 9.27334 17.19 9.12668 16 9.12668C14.7994 9.12668 13.658 9.27401 12.622 9.56134C12.3807 9.40068 12.0747 9.20201 11.7707 9.02068C11.1247 8.63534 10.6767 8.50001 10.156 8.32268C9.63536 8.14534 9.02069 8.20801 9.02069 8.20801C9.02069 8.20801 8.88536 8.55201 8.77069 9.04134C8.65603 9.53068 8.52069 10.0307 8.63536 10.864C8.68669 11.2387 8.79069 11.5347 8.89002 11.7527C8.01669 12.748 7.50469 14.0173 7.50469 15.5553C7.50469 19.544 9.65936 21.3647 13.5854 21.8453C13.1274 22.3293 12.82 22.9493 12.7167 23.6393C12.4587 23.7527 12.1614 23.8593 11.8754 23.902C11.1394 24.0133 10.3614 23.902 9.98669 23.68C9.61202 23.458 9.16736 22.958 8.83403 22.4713C8.55269 22.0607 8.14669 21.584 7.77869 21.416C7.29269 21.194 6.82002 21.1107 6.55669 21.152C6.29269 21.194 6.16802 21.388 6.22336 21.5273C6.27869 21.666 6.54269 21.8747 6.82069 22.0273C7.09869 22.18 7.52936 22.5967 7.77936 22.9993C8.05802 23.4487 8.11269 23.708 8.34869 24.2213C8.51469 24.5827 9.08269 25.034 9.48736 25.2767C9.83469 25.4853 10.5287 25.604 11.2794 25.638C11.5387 25.65 12.1514 25.574 12.668 25.5007V28.0007C12.668 28.4267 12.278 28.7507 11.874 28.676C13.1707 29.112 14.5554 29.3333 16 29.3333C17.444 29.3333 18.8287 29.112 20.1267 28.6773C19.7234 28.7513 19.3334 28.4273 19.3334 28.0013V24.132C19.3334 23.246 18.982 22.4453 18.418 21.8487C22.3154 21.3807 24.496 19.6033 24.496 15.556ZM7.49269 21.818C7.39003 21.7653 7.33469 21.668 7.36936 21.5993C7.40402 21.5307 7.51603 21.518 7.61869 21.5707C7.72136 21.6233 7.77669 21.7207 7.74202 21.7893C7.70736 21.858 7.59536 21.8707 7.49269 21.818ZM8.30069 22.3213C8.24669 22.38 8.13069 22.3613 8.04136 22.28C7.95203 22.1987 7.92336 22.0847 7.97736 22.026C8.03136 21.9673 8.14736 21.986 8.23669 22.0673C8.32602 22.1487 8.35469 22.2627 8.30069 22.3213ZM8.80336 23.1547C8.73536 23.2027 8.62003 23.158 8.54603 23.0547C8.47203 22.9513 8.46736 22.828 8.53536 22.78C8.60336 22.732 8.71869 22.7767 8.79269 22.88C8.86603 22.9833 8.87136 23.1067 8.80336 23.1547ZM9.52536 23.782C9.47936 23.8567 9.34869 23.86 9.23402 23.79C9.11936 23.72 9.06336 23.6027 9.10936 23.528C9.15536 23.4533 9.28602 23.45 9.40069 23.52C9.51536 23.59 9.57136 23.7073 9.52536 23.782ZM10.208 24.396C10.066 24.3787 9.96069 24.29 9.97269 24.198C9.98402 24.106 10.1087 24.046 10.25 24.0633C10.392 24.0807 10.4974 24.1693 10.4854 24.2613C10.474 24.3527 10.35 24.4133 10.208 24.396ZM11.3087 24.5553C11.1574 24.5467 11.0394 24.46 11.0454 24.3627C11.0514 24.2653 11.1787 24.1927 11.33 24.2013C11.4814 24.21 11.5994 24.2967 11.5934 24.394C11.5874 24.492 11.46 24.564 11.3087 24.5553ZM12.3474 24.4513C12.186 24.4513 12.0554 24.3673 12.0554 24.264C12.0554 24.1607 12.186 24.0767 12.3474 24.0767C12.5087 24.0767 12.6394 24.1607 12.6394 24.264C12.6394 24.3673 12.508 24.4513 12.3474 24.4513Z" fill="white"/>
<defs>
<linearGradient id="paint0_linear_3_4" x1="2.66675" y1="15.672" x2="29.3334" y2="15.672" gradientUnits="userSpaceOnUse">
<stop stop-color="#4C4C4C"/>
<stop offset="1" stop-color="#343434"/>
</linearGradient>
</defs>
</svg>
