<svg width="26" height="26" viewBox="0 0 26 26" fill="none" xmlns="http://www.w3.org/2000/svg">
<path d="M7.66667 0C3.43933 0 0 3.43933 0 7.66667V17.6667C0 21.894 3.43933 25.3333 7.66667 25.3333H17.6667C21.894 25.3333 25.3333 21.894 25.3333 17.6667V7.66667C25.3333 3.43933 21.894 0 17.6667 0H7.66667ZM19.3333 4.66667C20.07 4.66667 20.6667 5.26333 20.6667 6C20.6667 6.736 20.07 7.33333 19.3333 7.33333C18.5967 7.33333 18 6.736 18 6C18 5.26333 18.5967 4.66667 19.3333 4.66667ZM12.6667 6C16.3427 6 19.3333 8.99067 19.3333 12.6667C19.3333 16.3427 16.3427 19.3333 12.6667 19.3333C8.99067 19.3333 6 16.3427 6 12.6667C6 8.99067 8.99067 6 12.6667 6ZM12.6667 8C12.0538 8 11.447 8.12071 10.8808 8.35523C10.3146 8.58975 9.80017 8.93349 9.36683 9.36683C8.93349 9.80017 8.58975 10.3146 8.35523 10.8808C8.12071 11.447 8 12.0538 8 12.6667C8 13.2795 8.12071 13.8863 8.35523 14.4525C8.58975 15.0187 8.93349 15.5332 9.36683 15.9665C9.80017 16.3998 10.3146 16.7436 10.8808 16.9781C11.447 17.2126 12.0538 17.3333 12.6667 17.3333C13.2795 17.3333 13.8863 17.2126 14.4525 16.9781C15.0187 16.7436 15.5332 16.3998 15.9665 15.9665C16.3998 15.5332 16.7436 15.0187 16.9781 14.4525C17.2126 13.8863 17.3333 13.2795 17.3333 12.6667C17.3333 12.0538 17.2126 11.447 16.9781 10.8808C16.7436 10.3146 16.3998 9.80017 15.9665 9.36683C15.5332 8.93349 15.0187 8.58975 14.4525 8.35523C13.8863 8.12071 13.2795 8 12.6667 8Z" fill="white"/>
</svg>
